<?xml version="1.0" encoding="utf-8"?>
<!-- Generator: Adobe Illustrator 22.0.1, SVG Export Plug-In . SVG Version: 6.00 Build 0)  -->
<svg version="1.1" id="Warstwa_1" xmlns="http://www.w3.org/2000/svg" xmlns:xlink="http://www.w3.org/1999/xlink" x="0px" y="0px"
	 viewBox="0 0 95.9 96.6" style="enable-background:new 0 0 95.9 96.6;" xml:space="preserve">
<style type="text/css">
	.st0{fill:#FFFFFF;}
	.st1{fill:#D0142C;}
	.st2{fill:#06277F;}
	.st3{fill-rule:evenodd;clip-rule:evenodd;fill:#04AAFF;}
	.st4{fill:#FEFEFE;}
	.st5{fill:#D4213D;}
	.st6{fill:#E9E8E7;}
</style>
<g id="k1m0mI_1_">
	<g>
		<path class="st4" d="M2.8,48.2c-0.2,1.8,0,3.6,0.2,5.4c1,8.5,4,16.2,9.5,22.8c11.7,14.1,26.7,19.9,44.7,16.5
			C72.1,90,82.9,81.3,89.6,67.7c3-6.1,4.4-12.6,4.4-19.5c0-2.5-0.3-4.9-0.6-7.3c-0.3-2.6-1-5.1-1.8-7.5c-0.9-2.8-2.2-5.4-3.7-8
			c-1.7-2.8-3.7-5.5-5.9-7.9c-1.9-2.1-3.9-3.9-6.1-5.5c-1.1-0.8-2.2-1.6-3.4-2.3C71,8.7,69.6,7.7,68,7c-2.1-1-4.3-1.9-6.6-2.5
			c-3.6-1.1-7.2-1.7-11-1.9c-4.8-0.2-9.6,0.3-14.2,1.6c-3.6,1-7,2.3-10.2,4.2c-2.7,1.6-5.3,3.3-7.6,5.4c-3.6,3.2-6.6,6.9-9.2,10.9
			c-1.5,2.4-2.6,5.1-3.7,7.7c-1.2,2.9-1.7,5.9-2.3,9C2.8,43.6,2.7,45.9,2.8,48.2z"/>
		<path class="st5" d="M93.9,48.2c0,6.8-1.4,13.3-4.4,19.5C82.9,81.3,72.1,90,57.2,92.8c-18,3.4-33-2.4-44.7-16.5
			C7.1,69.7,4.1,62,3,53.6c-0.2-1.8-0.4-3.6-0.2-5.4c0.3,0,0.6,0,0.9,0c29.4,0,58.9,0,88.3,0C92.7,48.2,93.3,48.2,93.9,48.2z"/>
		<path class="st6" d="M93.9,48.2c-0.6,0-1.3,0-1.9,0c-29.4,0-58.9,0-88.3,0c-0.3,0-0.6,0-0.9,0c-0.1-2.3,0-4.6,0.4-6.8
			c0.6-3,1.2-6.1,2.3-9c1.1-2.7,2.1-5.3,3.7-7.7c2.6-4,5.6-7.7,9.2-10.9c2.4-2.1,5-3.8,7.6-5.4c3.2-1.9,6.6-3.2,10.2-4.2
			c4.7-1.3,9.4-1.8,14.2-1.6c3.7,0.2,7.4,0.8,11,1.9C63.7,5.1,65.9,6,68,7c1.6,0.7,3,1.7,4.5,2.6c1.2,0.7,2.3,1.5,3.4,2.3
			c2.2,1.6,4.3,3.5,6.1,5.5c2.2,2.5,4.2,5.1,5.9,7.9c1.5,2.5,2.7,5.2,3.7,8c0.8,2.5,1.5,5,1.8,7.5C93.6,43.3,94,45.7,93.9,48.2z"/>
	</g>
</g>
</svg>
