<svg id="Warstwa_1" data-name="Warstwa 1" xmlns="http://www.w3.org/2000/svg" viewBox="0 0 328.67 63.33"><defs><style>.cls-1{fill:#04aaff;fill-rule:evenodd;}</style></defs><title>logoFlarisSVG</title><path class="cls-1" d="M286.13,29.46c-5.47-.62-8.78-3.58-10.11-7.14a10.9,10.9,0,0,1-.63-4.7,11.05,11.05,0,0,1,1.42-4.56c1.94-3.38,5.81-5.85,11.43-5.57h35.91v4.62H288c-2.81-.14-5.71.69-7.19,3.25A6.51,6.51,0,0,0,280,18a6.36,6.36,0,0,0,.36,2.7c1,2.68,3.6,3.84,6.27,4.15l25.13,3.43c6.64.75,12.45,4.4,14.84,10.82a16.67,16.67,0,0,1-1.19,14.12c-3.43,6-9.82,8.73-16.55,8.44H270.54V57H309c6.09.3,10.3-2.41,12.43-6.12a12.12,12.12,0,0,0,.86-10.2c-1.45-3.91-5.07-7.16-11-7.84Zm25,4.51c5.47.63,8.78,3.59,10.11,7.14a11,11,0,0,1-.79,9.26c-1.94,3.38-5.8,5.85-11.43,5.57H270.54V51.32h38.71c2.81.14,5.71-.68,7.19-3.25a6.51,6.51,0,0,0,.82-2.65,6.21,6.21,0,0,0-.36-2.7c-1-2.67-3.6-3.84-6.26-4.14-9.16-1.14-16-2.25-25.14-3.43-6.64-.76-12.44-4.4-14.84-10.83a16.74,16.74,0,0,1,1.19-14.11c3.43-6,9.83-8.74,16.55-8.45h35.75V6.39H288.29c-6.09-.3-10.3,2.41-12.43,6.12a12.08,12.08,0,0,0-.87,10.2c1.46,3.91,5.08,7.16,11,7.84ZM263.84,61.69h-4.63V1.74h4.63ZM253.49,1.74h4.62v60h-4.62Zm-55.78,29,24.19-2,1-.08c3.74-.38,10-.56,11.55-4.72a11.68,11.68,0,0,0,.56-4,8.47,8.47,0,0,0-1.93-5.6,7.27,7.27,0,0,0-4.84-2.16H197.79a4.53,4.53,0,0,0-1.79.18,2.14,2.14,0,0,0-1.24,1.5,6.85,6.85,0,0,0,0,1.43V27.55a6.61,6.61,0,0,0,.07,1.6,2.16,2.16,0,0,0,2.09,1.62c.28,0,.56,0,.84-.06M195,35.58l25.48-2.14,2.83-.23c4.28-.34,9.43-.76,12.65-3.54a10,10,0,0,0,2.88-4.21,16.14,16.14,0,0,0,.84-5.65,13,13,0,0,0-3.13-8.67,11.88,11.88,0,0,0-8.07-3.67H197.85c-3.15.07-5.07,1.09-6.2,2.58a9.35,9.35,0,0,0-1.57,5.53h0V31.84a3.9,3.9,0,0,0,2.35,3.53,4.71,4.71,0,0,0,2.55.21m43.17,26.11-5.72-14.42L232,46.13a20.78,20.78,0,0,0-2.19-4.67c-1.85-2.33-4.25-2.69-7-2.46l-2.73.23-22.84,1.91a3.55,3.55,0,0,0-1.2.23,2.14,2.14,0,0,0-1.25,1.57,5.77,5.77,0,0,0,0,1V61.69h-4.63V41.07a4.63,4.63,0,0,1,.26-1.81,3.92,3.92,0,0,1,2.17-2.19,7.13,7.13,0,0,1,2.15-.36l27.71-2.32a12.86,12.86,0,0,1,5.31.21,11.73,11.73,0,0,1,5.73,4,23,23,0,0,1,2.88,5.86c2.25,5.76,4.55,11.5,6.85,17.24Zm-.1-26.47a28.78,28.78,0,0,1,3.58,7.14l7.66,19.33h-5l-6.57-16.52L237.32,44a24.4,24.4,0,0,0-3-6.14,13.69,13.69,0,0,0-1.47-1.58,2.34,2.34,0,0,1,.63-3.87,12.05,12.05,0,0,0,3.23-2,11,11,0,0,0,3.19-4.66,17,17,0,0,0,.9-6,14.11,14.11,0,0,0-3.41-9.4,12.93,12.93,0,0,0-8.82-4H197.84c-3.54.08-5.74,1.27-7.07,3A10.53,10.53,0,0,0,189,15.57h0V61.69h-4.63V15.1l0-.08a14.66,14.66,0,0,1,2.72-8.44c2.5-3.27,6.21-4.64,10.2-4.82l.08,0H228.6l.23,0h.07a17.56,17.56,0,0,1,11.86,5.53,18.7,18.7,0,0,1,4.62,12.47,21.69,21.69,0,0,1-1.18,7.66A15.73,15.73,0,0,1,239.68,34a13.56,13.56,0,0,1-1.63,1.22M165.75,33l-34,2.42c-2.23.16-4.52.26-6,2.17-2.24,2.85-2.29,8.82.34,11.59a7.63,7.63,0,0,0,5,2.11h25.9c9.45,0,11.12-7.32,11.53-15.7,0-.15,0-.31,0-.46A2.21,2.21,0,0,0,166.26,33l-.51,0m7.38,1.06a7.3,7.3,0,0,0-.5-3.61,4.29,4.29,0,0,0-4.57-2.27l-32.58,2.27c-1.57.11-3.15.25-4.72.39a23.93,23.93,0,0,0-3.2.44,9.51,9.51,0,0,0-5.49,3.4c-3.66,4.64-3.55,13.2.68,17.65a11.47,11.47,0,0,0,6,3.26A18.91,18.91,0,0,0,133,56h23.65c13,0,16.38-10.23,16.52-21.86M133,24.92l5.2-.37,26-1.79a3.93,3.93,0,0,0,1.49-.26,2.11,2.11,0,0,0,1.19-1.95,4.87,4.87,0,0,0-.47-1.62,10.06,10.06,0,0,0-7.45-6.51,31.07,31.07,0,0,0-6.75-.33H123.83V7.46h31.38c.9,0,1.79,0,2.68.1,8.27.8,12.4,6.48,14.11,14.06a6.34,6.34,0,0,1,.24,2.59,3.48,3.48,0,0,1-1.68,2.38,5.15,5.15,0,0,1-2.36.51l-33,2.31c-1.61.11-3.22.25-4.83.39a24.25,24.25,0,0,0-3.15.43,10.58,10.58,0,0,0-6,3.8c-4,5-3.84,14.25.76,19.09a12.5,12.5,0,0,0,5.8,3.4,21.09,21.09,0,0,0,6,.54h23.59c16.36,0,17.62-17,16.6-29.5-.84-10.32-4.66-20.08-16.13-21.1-.87-.08-1.74-.1-2.61-.1h-31.4V1.73h31.76c6.28,0,12,1.94,16.3,6.77,4.52,5.12,6.16,12.22,6.7,18.78,1.28,15.68-2,34.41-21.35,34.41H133.68a24.87,24.87,0,0,1-6.42-.55,17.29,17.29,0,0,1-8.63-4.87c-6.2-6.54-6.48-18.3-1.08-25.15a14.81,14.81,0,0,1,3.71-3.38c3.56-2.27,7.56-2.52,11.69-2.82M72.8,1.75V42.56a8.77,8.77,0,0,0,8.86,8.78H110V56H81.66a13.52,13.52,0,0,1-9.23-3.6,12.52,12.52,0,0,1-4.25-8.75V1.75ZM110,61.7H81.66a19.2,19.2,0,0,1-13.1-5.11,18.27,18.27,0,0,1-6.11-13V1.75h4.62V43.62a13.65,13.65,0,0,0,4.62,9.56,14.6,14.6,0,0,0,10,3.89H110Zm-96.14-31H54.82v4.63H11a4.35,4.35,0,0,1-.51,0,3.92,3.92,0,0,1-3.38-3.83V19.82a12.53,12.53,0,0,1,4.26-8.75,13.5,13.5,0,0,1,9.23-3.6H56.79V12.1H20.55a8.89,8.89,0,0,0-6.1,2.38,8.5,8.5,0,0,0-2.76,5.88v8.21h0a2.17,2.17,0,0,0,2.16,2.17Zm40.94,5.73V41.1h-41a2.16,2.16,0,0,0-2.16,2.16v.05h0V61.7H7.06V41a5.16,5.16,0,0,1,.34-2.2,3.92,3.92,0,0,1,3.06-2.25,5.44,5.44,0,0,1,.57,0ZM1.33,61.7V19.82c0-4.89,2.57-9.7,6.11-13a19.23,19.23,0,0,1,13.11-5.1H56.79V6.37H20.55a14.58,14.58,0,0,0-10,3.89A13.65,13.65,0,0,0,6,19.82V61.7Z"/><polygon class="cls-1" points="78.97 1.74 100.93 7.36 89.19 11.49 106.65 8.83 116.9 1.76 78.97 1.74"/></svg>